<svg width="20" height="20" viewBox="0 0 20 20" fill="none" xmlns="http://www.w3.org/2000/svg">
<path d="M10 0C4.47589 0 0 4.47589 0 10C0 15.5241 4.47589 20 10 20C15.5241 20 20 15.5241 20 10C20 4.47589 15.5241 0 10 0ZM6.20536 14.3701C6.14399 14.4748 6.05615 14.5614 5.95067 14.6214C5.84519 14.6813 5.72579 14.7124 5.60446 14.7116C5.48081 14.7127 5.35931 14.6793 5.25357 14.6152C5.17484 14.5696 5.1059 14.5088 5.0507 14.4365C4.9955 14.3642 4.95513 14.2816 4.9319 14.1937C4.90867 14.1057 4.90305 14.014 4.91534 13.9238C4.92764 13.8337 4.95763 13.7468 5.00357 13.6683L5.68616 12.5335C5.72065 12.4749 5.76987 12.4264 5.82892 12.3927C5.88796 12.359 5.95479 12.3414 6.02277 12.3415H6.12366C6.61875 12.3415 6.96518 12.6393 7.06607 12.9277L6.20536 14.3701ZM11.9844 12.1379L7.51429 12.1429H4.5433C4.44983 12.1433 4.35725 12.1247 4.27118 12.0882C4.18511 12.0517 4.10734 11.9982 4.04259 11.9308C3.97784 11.8633 3.92746 11.7835 3.89451 11.696C3.86156 11.6085 3.84672 11.5153 3.85089 11.4219C3.86518 11.0469 4.19241 10.7629 4.56518 10.7629H6.71875L9.27188 6.41696L8.44509 5.00848C8.25893 4.6875 8.34152 4.26429 8.66071 4.0625C8.73941 4.01161 8.82758 3.97715 8.91993 3.96121C9.01228 3.94526 9.1069 3.94816 9.1981 3.96972C9.2893 3.99128 9.3752 4.03106 9.45063 4.08667C9.52607 4.14227 9.58948 4.21256 9.63705 4.2933L10.079 5.04821H10.0839L10.5263 4.2933C10.574 4.21298 10.6373 4.14307 10.7125 4.08774C10.7877 4.03241 10.8733 3.9928 10.9642 3.97126C11.055 3.94972 11.1493 3.9467 11.2414 3.96237C11.3334 3.97805 11.4214 4.0121 11.5 4.0625C11.8174 4.26429 11.8991 4.6875 11.7116 5.00982L10.8848 6.4183L10.0813 7.78839L8.33616 10.7643V10.7692H10.908C11.2304 10.7692 11.6344 10.9424 11.7978 11.221L11.8121 11.25C11.9563 11.4951 12.0379 11.6634 12.0379 11.9085C12.0356 11.9881 12.0179 12.0664 11.9857 12.1393L11.9844 12.1379ZM15.4554 12.1429H14.2451V12.1478L15.1299 13.6527C15.2251 13.8112 15.2542 14.0007 15.211 14.1805C15.1679 14.3602 15.0559 14.5158 14.8991 14.6138C14.7904 14.6801 14.6657 14.7151 14.5384 14.7152C14.4174 14.7151 14.2985 14.6838 14.1932 14.6242C14.0879 14.5646 13.9998 14.4787 13.9375 14.375L12.6299 12.1491L11.8174 10.7652L10.7692 8.97321C10.6174 8.71734 10.5348 8.42633 10.5298 8.12885C10.5247 7.83137 10.5972 7.5377 10.7402 7.27679C10.9473 6.91116 11.1058 6.81518 11.1058 6.81518L13.4375 10.7589H15.4424C15.8174 10.7589 16.1393 11.0473 16.1567 11.4174C16.1603 11.5115 16.1449 11.6054 16.1113 11.6933C16.0777 11.7813 16.0267 11.8616 15.9613 11.9293C15.8959 11.9971 15.8175 12.0509 15.7308 12.0876C15.6441 12.1243 15.5509 12.1431 15.4567 12.1429H15.4554Z" fill="white"/>
</svg>
