<svg width="36" height="36" viewBox="0 0 36 36" fill="none" xmlns="http://www.w3.org/2000/svg">
<path d="M12.9547 35.3729L12.2547 29.7729C11.8755 29.627 11.5185 29.452 11.1837 29.2479C10.8477 29.0437 10.5193 28.8249 10.1984 28.5916L4.99219 30.7791L0.179688 22.4666L4.68594 19.0541C4.65677 18.8499 4.64219 18.6528 4.64219 18.4626V17.2814C4.64219 17.0924 4.65677 16.8958 4.68594 16.6916L0.179688 13.2791L4.99219 4.96661L10.1984 7.15411C10.5193 6.92078 10.8547 6.70203 11.2047 6.49786C11.5547 6.2937 11.9047 6.1187 12.2547 5.97286L12.9547 0.372864H22.5797L23.2797 5.97286C23.6589 6.1187 24.0164 6.2937 24.3524 6.49786C24.6873 6.70203 25.0151 6.92078 25.3359 7.15411L30.5422 4.96661L35.3547 13.2791L30.8484 16.6916C30.8776 16.8958 30.8922 17.0924 30.8922 17.2814V18.4626C30.8922 18.6528 30.863 18.8499 30.8047 19.0541L35.3109 22.4666L30.4984 30.7791L25.3359 28.5916C25.0151 28.8249 24.6797 29.0437 24.3297 29.2479C23.9797 29.452 23.6297 29.627 23.2797 29.7729L22.5797 35.3729H12.9547ZM17.8547 23.9979C19.5464 23.9979 20.9901 23.3999 22.1859 22.2041C23.3818 21.0083 23.9797 19.5645 23.9797 17.8729C23.9797 16.1812 23.3818 14.7374 22.1859 13.5416C20.9901 12.3458 19.5464 11.7479 17.8547 11.7479C16.1339 11.7479 14.6825 12.3458 13.5007 13.5416C12.32 14.7374 11.7297 16.1812 11.7297 17.8729C11.7297 19.5645 12.32 21.0083 13.5007 22.2041C14.6825 23.3999 16.1339 23.9979 17.8547 23.9979Z" fill="#222222"/>
</svg>
