<svg width="20" height="20" viewBox="0 0 20 20" fill="none" xmlns="http://www.w3.org/2000/svg">
<path d="M9.9975 6.66525C8.16126 6.66525 6.66274 8.16376 6.66274 10C6.66274 11.8362 8.16126 13.3348 9.9975 13.3348C11.8337 13.3348 13.3323 11.8362 13.3323 10C13.3323 8.16376 11.8337 6.66525 9.9975 6.66525ZM19.9993 10C19.9993 8.61907 20.0118 7.25064 19.9342 5.87221C19.8567 4.27113 19.4914 2.85017 18.3206 1.67938C17.1473 0.506085 15.7289 0.14334 14.1278 0.065788C12.7469 -0.0117644 11.3784 0.000744113 10 0.000744113C8.61907 0.000744113 7.25064 -0.0117644 5.87221 0.065788C4.27113 0.14334 2.85017 0.508587 1.67938 1.67938C0.506086 2.85267 0.14334 4.27113 0.065788 5.87221C-0.0117644 7.25314 0.000744113 8.62157 0.000744113 10C0.000744113 11.3784 -0.0117644 12.7494 0.065788 14.1278C0.14334 15.7289 0.508587 17.1498 1.67938 18.3206C2.85267 19.4939 4.27113 19.8567 5.87221 19.9342C7.25314 20.0118 8.62157 19.9993 10 19.9993C11.3809 19.9993 12.7494 20.0118 14.1278 19.9342C15.7289 19.8567 17.1498 19.4914 18.3206 18.3206C19.4939 17.1473 19.8567 15.7289 19.9342 14.1278C20.0143 12.7494 19.9993 11.3809 19.9993 10ZM9.9975 15.131C7.15808 15.131 4.86653 12.8394 4.86653 10C4.86653 7.16058 7.15808 4.86903 9.9975 4.86903C12.8369 4.86903 15.1285 7.16058 15.1285 10C15.1285 12.8394 12.8369 15.131 9.9975 15.131ZM15.3386 5.8572C14.6757 5.8572 14.1403 5.32184 14.1403 4.65889C14.1403 3.99594 14.6757 3.46058 15.3386 3.46058C16.0016 3.46058 16.5369 3.99594 16.5369 4.65889C16.5371 4.81631 16.5063 4.97222 16.4461 5.1177C16.386 5.26317 16.2977 5.39535 16.1864 5.50666C16.0751 5.61798 15.9429 5.70624 15.7974 5.76639C15.6519 5.82654 15.496 5.8574 15.3386 5.8572Z" fill="white"/>
</svg>
