<svg width="36" height="36" viewBox="0 0 36 36" fill="none" xmlns="http://www.w3.org/2000/svg">
<path d="M13.0221 35.3729L12.3221 29.7729C11.9429 29.6271 11.5859 29.4521 11.2511 29.2479C10.9151 29.0438 10.5867 28.825 10.2658 28.5917L5.05957 30.7792L0.24707 22.4667L4.75332 19.0542C4.72415 18.85 4.70957 18.6528 4.70957 18.4627V17.2814C4.70957 17.0924 4.72415 16.8958 4.75332 16.6917L0.24707 13.2792L5.05957 4.96667L10.2658 7.15417C10.5867 6.92084 10.9221 6.70209 11.2721 6.49792C11.6221 6.29376 11.9721 6.11876 12.3221 5.97292L13.0221 0.372925H22.6471L23.3471 5.97292C23.7262 6.11876 24.0838 6.29376 24.4198 6.49792C24.7547 6.70209 25.0825 6.92084 25.4033 7.15417L30.6096 4.96667L35.4221 13.2792L30.9158 16.6917C30.945 16.8958 30.9596 17.0924 30.9596 17.2814V18.4627C30.9596 18.6528 30.9304 18.85 30.8721 19.0542L35.3783 22.4667L30.5658 30.7792L25.4033 28.5917C25.0825 28.825 24.7471 29.0438 24.3971 29.2479C24.0471 29.4521 23.6971 29.6271 23.3471 29.7729L22.6471 35.3729H13.0221ZM17.9221 23.9979C19.6137 23.9979 21.0575 23.4 22.2533 22.2042C23.4492 21.0083 24.0471 19.5646 24.0471 17.8729C24.0471 16.1813 23.4492 14.7375 22.2533 13.5417C21.0575 12.3458 19.6137 11.7479 17.9221 11.7479C16.2012 11.7479 14.7499 12.3458 13.5681 13.5417C12.3874 14.7375 11.7971 16.1813 11.7971 17.8729C11.7971 19.5646 12.3874 21.0083 13.5681 22.2042C14.7499 23.4 16.2012 23.9979 17.9221 23.9979Z" fill="white"/>
</svg>
