<svg width="29" height="16" viewBox="0 0 29 16" fill="none" xmlns="http://www.w3.org/2000/svg">
<path d="M0 8.02441C0.63729 8.16777 1.28778 8.26985 1.9082 8.46388C3.22238 8.87512 4.56077 8.84254 5.90355 8.74407C9.0328 8.51384 12.1518 8.06351 15.3001 8.20976C17.2758 8.30171 19.2478 8.46316 21.2205 8.60506C22.8038 8.71873 24.3886 8.94607 25.972 8.7057C26.874 8.56886 27.7555 8.30315 28.6473 8.09754C28.7529 8.07292 28.8614 8.06206 29 8.04034C28.516 8.30967 28.0092 8.50008 27.6191 8.82661C26.7368 9.56582 25.9126 10.3731 25.0641 11.1514C23.2864 12.7811 21.3151 14.0843 18.939 14.7106C17.583 15.0682 16.2153 15.0943 14.8315 14.8974C14.5367 14.8554 14.2243 14.8793 13.9272 14.922C11.5856 15.2572 9.41415 14.7533 7.36 13.6492C5.74588 12.7811 4.33929 11.6495 3.08451 10.3325C2.18981 9.3935 1.23498 8.54352 0.00073336 8.02586L0 8.02441Z" fill="#E60023"/>
<path d="M0 7.81057C2.16181 7.02848 3.80527 5.52162 5.38259 3.90315C6.45379 2.8043 7.57531 1.76277 8.88232 0.972387C9.9945 0.299654 11.1721 -0.188303 12.4726 0.117896C13.0866 0.262699 13.6625 0.611887 14.2354 0.909789C14.4209 1.00632 14.5216 1.04177 14.7013 0.906018C16.1995 -0.224503 17.7754 -0.193582 19.3873 0.604345C20.9926 1.40001 22.2888 2.6331 23.557 3.89937C24.6246 4.96579 25.6743 6.05634 26.9805 6.80675C27.6168 7.17178 28.2861 7.4727 29 7.8332C28.5996 7.88901 28.2322 7.96065 27.8619 7.98856C25.5398 8.16428 23.309 7.67708 21.1292 6.89952C20.3499 6.62122 19.5857 6.28184 18.8423 5.91003C17.5051 5.24182 16.1377 5.12719 14.715 5.51936C14.5633 5.5616 14.3821 5.56612 14.2311 5.52389C12.7429 5.10531 11.341 5.29839 9.94273 5.98771C7.15618 7.36183 4.23519 8.1673 1.12152 7.99233C0.846894 7.97725 0.573702 7.93426 0.30123 7.89504C0.199142 7.87996 0.10065 7.83848 0.000718925 7.80982L0 7.81057Z" fill="#E60023"/>
</svg>
