<svg width="19" height="20" viewBox="0 0 19 20" fill="none" xmlns="http://www.w3.org/2000/svg">
<path d="M0 1.22735V18.7718C0.000117538 18.8098 0.0114703 18.847 0.0326348 18.8786C0.0537993 18.9103 0.0838333 18.935 0.118971 18.9496C0.154108 18.9642 0.192785 18.9682 0.230151 18.9609C0.267516 18.9537 0.301908 18.9355 0.329013 18.9088L9.46416 10L0.329013 1.0903C0.301908 1.06357 0.267516 1.04545 0.230151 1.03819C0.192785 1.03093 0.154108 1.03487 0.118971 1.04951C0.0838333 1.06414 0.0537993 1.08883 0.0326348 1.12047C0.0114703 1.1521 0.000117538 1.18929 0 1.22735ZM13.2945 6.33933L1.84015 0.0287042L1.83301 0.0246863C1.63569 -0.0824551 1.44819 0.184506 1.6098 0.339861L10.5887 8.92546L13.2945 6.33933ZM1.61069 19.6601C1.4482 19.8155 1.63569 20.0825 1.8339 19.9753L1.84105 19.9713L13.2945 13.6607L10.5887 11.0736L1.61069 19.6601ZM17.9185 8.88394L14.7199 7.12236L11.7123 10L14.7199 12.8763L17.9185 11.1161C18.7886 10.6353 18.7886 9.36474 17.9185 8.88394Z" fill="white"/>
</svg>
