<svg width="25" height="20" viewBox="0 0 25 20" fill="none" xmlns="http://www.w3.org/2000/svg">
<path d="M24.5972 2.37422C23.6759 2.78173 22.6989 3.04936 21.6986 3.16826C22.753 2.53765 23.5421 1.5452 23.919 0.375842C22.9294 0.964736 21.8446 1.37744 20.7139 1.60069C19.9543 0.788042 18.9476 0.249089 17.8502 0.0676199C16.7528 -0.113849 15.6261 0.0723338 14.6454 0.597224C13.6647 1.12211 12.8849 1.9563 12.4272 2.9701C11.9696 3.9839 11.8596 5.12051 12.1146 6.20323C10.1079 6.10266 8.14475 5.58118 6.35267 4.67267C4.5606 3.76416 2.97962 2.48892 1.71238 0.92974C1.26382 1.70019 1.0281 2.57602 1.02936 3.46753C1.02936 5.21732 1.91994 6.76316 3.27391 7.66823C2.47264 7.643 1.68901 7.42661 0.988328 7.0371V7.09985C0.988569 8.26521 1.39183 9.39462 2.12973 10.2966C2.86763 11.1986 3.89476 11.8176 5.03697 12.0487C4.29315 12.2503 3.51322 12.28 2.75622 12.1356C3.07826 13.1387 3.70593 14.016 4.55136 14.6446C5.3968 15.2732 6.41765 15.6217 7.47098 15.6412C6.42411 16.4634 5.22544 17.0712 3.94351 17.4298C2.66159 17.7885 1.32154 17.8909 0 17.7313C2.30694 19.2149 4.99244 20.0026 7.73526 20C17.0188 20 22.0956 12.3094 22.0956 5.63968C22.0956 5.42247 22.0895 5.20284 22.0799 4.98804C23.0681 4.27384 23.9209 3.38912 24.5984 2.37543L24.5972 2.37422Z" fill="white"/>
</svg>
